<?xml version="1.0" encoding="UTF-8"?><svg id="Layer_1" xmlns="http://www.w3.org/2000/svg" viewBox="0 0 666.82 154.9"><defs><style>.cls-1{fill:#181c32;}</style></defs><path class="cls-1" d="M323.14,90.74v24.74c.04.66.04,1.32,0,1.98v35.96c6.88-2.11,13.11-5.91,18.14-11.05,8.5-8.19,13.22-19.54,13.03-31.34V45.05c.18-11.8-4.54-23.15-13.03-31.34C333.2,4.94,321.79-.03,309.86.01h-69.36c-11.96.02-23.26,5.45-30.76,14.76l-21.53,26.39,18.39,22.6,26.14-32.33c2.54-3.13,6.36-4.95,10.39-4.95h66.72c3.53-.05,6.91,1.39,9.32,3.96,2.56,2.45,3.99,5.86,3.96,9.4,0,0,0,50.89,0,50.89Z"/><path class="cls-1" d="M209.57,140.22c7.58,9.29,18.94,14.68,30.93,14.68h40.41c.32-.03.61-.18.82-.41.26-.26.41-.62.41-.99v-23.84c0-.37-.15-.73-.41-.99-.22-.23-.51-.38-.82-.41h-37.77c-4,.03-7.81-1.72-10.39-4.78L144.5,14.78C136.93,5.47,125.58.05,113.57.01h-62.27c-.32.03-.61.18-.82.41-.1.27-.1.56,0,.82V.01h-5.77c-11.9-.3-23.39,4.39-31.67,12.95C4.54,21.19-.18,32.56,0,44.39v65.98c-.19,11.8,4.53,23.15,13.03,31.34,8.18,8.45,19.5,13.14,31.26,12.95h5.77v-1.4c-.12.32-.12.67,0,.99.22.23.51.38.82.41h62.27c11.99,0,23.35-5.39,30.93-14.68l21.28-26.23-18.47-22.68-26.06,32.17c-2.56,3.04-6.33,4.79-10.31,4.78h-59.22c-.32.03-.61.18-.82.41-.12.32-.12.67,0,.99v-1.24h-5.77c-3.53.05-6.91-1.39-9.32-3.96-2.55-2.43-3.98-5.8-3.96-9.32V39.85c-.14-3.49,1.14-6.88,3.55-9.4,2.42-2.55,5.81-3.96,9.32-3.88h5.77v-1.32c-.11.29-.11.61,0,.91.27.1.56.1.82,0h59.79c3.95.04,7.68,1.85,10.14,4.95l88.74,109.11Z"/><path class="cls-1" d="M395.06,50.32h62.6c8.7,0,15.75,7.05,15.75,15.75v5.53c0,8.7-7.05,15.75-15.75,15.75h-51.55v17.65h-10.23c-.26-.03-.46-.24-.49-.49l-.33-54.19ZM458.15,77.54c1.26.02,2.47-.53,3.3-1.48.91-.85,1.42-2.05,1.4-3.3v-8.25c.24-1.35-.12-2.73-.99-3.79-.85-.91-2.05-1.42-3.3-1.4h-52.45v18.23h52.04Z"/><path class="cls-1" d="M490.4,65.66c0-8.7,7.05-15.75,15.75-15.75.03,0,.06,0,.08,0h47.26c4.18-.03,8.2,1.63,11.13,4.62,2.95,2.94,4.56,6.97,4.45,11.13v38.93c-.03.26-.24.46-.49.49h-9.9v-18.14h-57.24v17.65h-10.56l-.49-38.93ZM558.2,77.54v-13.44c.05-1.28-.46-2.51-1.4-3.38-.87-.89-2.06-1.4-3.3-1.4h-47.26c-1.27-.03-2.5.48-3.38,1.4-.91.89-1.41,2.11-1.4,3.38v13.44h56.74Z"/><path class="cls-1" d="M656.75,50.32h10.06v15.51c.05,4.45-2.63,8.48-6.76,10.14l-27.71,12.21v16.5h-10.56v-16.5l-29.28-12.21c-2-.85-3.7-2.29-4.87-4.12-1.29-1.75-2.01-3.85-2.06-6.02v-15.51h10.06v13.36c-.03,1.89,1.12,3.6,2.89,4.29l28.29,11.38,27.05-11.38c1.73-.72,2.87-2.41,2.89-4.29v-13.36Z"/></svg>