<?xml version="1.0" encoding="UTF-8"?>
<svg width="150" height="150" viewBox="0 0 150 150" fill="none" xmlns="http://www.w3.org/2000/svg">
<rect width="150" height="150" rx="75" fill="#E5E7EB"/>
<path d="M75 70C85.4934 70 94 61.4934 94 51C94 40.5066 85.4934 32 75 32C64.5066 32 56 40.5066 56 51C56 61.4934 64.5066 70 75 70Z" fill="#9CA3AF"/>
<path d="M75 80C55.1177 80 39 96.1177 39 116V130C39 134.418 42.5817 138 47 138H103C107.418 138 111 134.418 111 130V116C111 96.1177 94.8823 80 75 80Z" fill="#9CA3AF"/>
</svg>
