<svg version="1.1" id="Layer_1" xmlns="http://www.w3.org/2000/svg" xmlns:xlink="http://www.w3.org/1999/xlink" x="0px" y="0px"
	 width="100%" viewBox="0 0 1024 1024" enable-background="new 0 0 1024 1024" xml:space="preserve">
<path fill="#000000" opacity="1.000000" stroke="none" 
	d="
M899.096619,526.242920 
	C903.127991,557.469727 909.296997,587.649719 922.708557,615.973694 
	C932.609924,636.884277 942.636414,657.782227 949.365967,679.999451 
	C959.357483,712.985840 959.268250,745.583862 944.317139,777.280701 
	C935.641418,795.673462 923.951538,810.985840 902.591125,815.713440 
	C900.151733,816.253296 897.748657,816.836365 894.992065,815.741333 
	C898.142029,799.231140 907.955688,783.717773 903.413147,765.530884 
	C900.857239,766.793091 900.748230,768.592102 900.064514,770.062073 
	C879.158508,815.005554 845.339844,844.280273 796.450439,855.034973 
	C791.995422,856.014954 787.310425,856.898743 782.586731,855.712402 
	C778.748047,854.748352 777.996094,852.934509 780.261719,849.695007 
	C784.555237,843.556030 788.816528,837.393860 793.018921,831.192322 
	C794.003784,829.739014 795.314148,828.359802 795.235107,826.057373 
	C792.502136,826.561829 790.913147,828.574707 789.063232,830.069214 
	C772.514771,843.437866 753.735962,851.113403 732.426758,852.318970 
	C729.028442,852.511108 725.918274,853.507019 722.848633,854.871460 
	C714.531677,858.568237 705.866699,860.856384 696.702942,860.301514 
	C692.675842,860.057617 689.334106,861.192627 685.867676,863.119690 
	C668.048340,873.025635 649.455627,880.392517 628.516479,879.301697 
	C624.552124,879.095154 620.552795,878.921021 616.839233,876.514465 
	C620.674072,866.901367 629.090515,860.023132 632.838074,849.722046 
	C627.010986,849.452637 622.253906,851.068176 617.404297,851.690918 
	C614.586853,852.052795 611.798401,852.376221 608.967102,852.374939 
	C599.901978,852.370911 598.098267,850.979126 595.903992,842.094360 
	C595.187683,839.194092 594.519470,836.267822 594.082275,833.315979 
	C593.408508,828.766785 591.240479,827.904053 587.138855,829.710754 
	C573.868286,835.556274 560.247131,840.523621 546.183044,844.038147 
	C522.115784,850.052307 497.824493,855.223694 472.890533,855.229248 
	C448.079041,855.234802 424.112305,849.563416 400.456879,842.540710 
	C395.675446,841.121216 390.941406,839.542664 386.174347,838.073792 
	C384.463470,837.546570 382.704651,836.678589 380.499329,838.685059 
	C383.876038,846.111084 387.340729,853.730652 391.187286,862.189941 
	C351.941925,870.675781 320.533844,858.571594 294.384247,828.255249 
	C295.923706,842.222168 301.336243,853.592896 306.764313,865.283569 
	C301.878143,868.561157 296.747681,867.420105 292.022522,867.072144 
	C257.308380,864.515991 227.572922,850.457458 202.056610,827.154480 
	C196.157486,821.767029 190.832672,815.761292 186.387466,809.046448 
	C185.611511,807.874329 185.117828,806.257202 182.462311,806.134460 
	C184.478943,817.050720 190.126907,826.458984 193.690338,837.251404 
	C185.749969,837.001587 179.193375,834.534607 173.113754,830.697632 
	C159.424377,822.058105 150.131073,809.566345 143.059219,795.347656 
	C133.550125,776.228821 128.675201,755.934937 129.759995,734.536316 
	C130.623917,717.494934 135.071930,701.108704 140.276337,684.918030 
	C147.310349,663.035522 156.572556,641.976013 163.971680,620.226868 
	C169.073669,605.229919 172.783783,589.909790 175.468948,574.326538 
	C175.917618,571.722778 176.103455,569.029114 174.270523,566.664246 
	C168.115402,558.722595 163.120697,550.097473 159.193069,540.848755 
	C158.968948,540.320984 158.469238,539.910217 157.615921,538.841431 
	C155.975479,549.742493 157.959869,560.039551 156.880722,570.059326 
	C154.039780,571.275940 152.338837,569.748718 150.620483,568.511108 
	C142.948013,562.985229 137.674835,555.417175 134.091904,546.932739 
	C125.393219,526.334106 122.840919,504.731232 124.405243,482.476868 
	C127.586838,437.215027 146.198975,397.478973 168.343796,359.017303 
	C170.323868,355.578247 170.557602,352.759552 169.273560,349.241241 
	C158.932327,320.905823 153.720215,291.523468 151.619217,261.525177 
	C150.956818,252.067444 149.648407,242.581512 149.917969,233.145111 
	C150.919708,198.079453 152.076874,162.981796 163.713699,129.302719 
	C167.010727,119.760521 171.849808,111.592186 182.517471,109.098785 
	C189.288528,107.516159 196.086929,108.617172 202.762360,110.196297 
	C231.343292,116.957298 257.640259,129.534409 283.841003,142.287567 
	C309.672882,154.861160 334.088562,169.822357 357.013855,187.140869 
	C360.581696,189.836151 363.550964,190.450485 367.803436,188.815613 
	C390.831085,179.962708 414.567657,173.654984 438.866547,169.309769 
	C460.407410,165.457748 482.101654,164.307617 503.919678,164.439987 
	C522.070679,164.550125 540.138794,165.807831 558.207764,167.538605 
	C584.791992,170.085007 610.844910,174.969376 636.056763,183.861801 
	C639.255554,184.990036 641.465576,184.768860 644.204407,182.776123 
	C693.079529,147.215622 747.726868,124.215813 805.910156,109.126534 
	C817.126221,106.217758 828.552673,103.936981 840.393250,105.569038 
	C850.184753,106.918663 857.704041,110.896774 861.628357,120.494919 
	C867.343994,134.474197 870.077271,149.192673 872.186829,163.991943 
	C875.577332,187.777115 876.246338,211.766693 875.140137,235.725082 
	C873.413513,273.118927 867.561035,309.796875 853.479492,344.766479 
	C852.059204,348.293579 852.684692,351.058044 854.415466,354.151306 
	C872.185608,385.911041 881.596191,420.446472 888.437195,455.898376 
	C892.908813,479.071625 895.508850,502.501923 899.096619,526.242920 
M743.307678,239.721405 
	C740.150208,243.995468 736.958984,248.245117 733.843811,252.549820 
	C729.972961,257.898926 730.108826,259.223633 734.865479,263.991180 
	C736.159241,265.287994 737.508789,266.529419 738.839722,267.788910 
	C750.697144,279.009674 762.626038,290.138458 771.892639,303.771393 
	C775.975525,309.778137 780.613831,315.407288 784.874878,321.042389 
	C786.987427,320.619843 787.129517,318.004730 789.483704,318.358582 
	C790.772949,322.694702 791.211731,327.652863 793.555420,331.428497 
	C802.095581,345.186707 809.546814,359.425385 815.148804,374.616058 
	C816.005981,376.940338 817.501953,378.115540 819.900757,378.366486 
	C822.705994,378.659943 823.909607,376.638794 824.541138,374.634155 
	C827.515320,365.192719 832.753845,356.816132 836.827637,347.896820 
	C852.986328,312.518097 859.534424,274.932404 861.533325,236.494583 
	C863.093201,206.499802 861.968750,176.502609 855.463562,147.035522 
	C853.130737,136.468292 853.135315,123.981956 839.438782,119.709373 
	C837.278076,119.035362 826.008911,118.283630 824.552856,120.024521 
	C820.600525,124.749977 815.329102,123.547256 810.601196,123.017456 
	C807.552063,122.675781 804.766724,122.450729 801.829712,123.247818 
	C778.953735,129.456116 756.847046,137.853333 735.267151,147.526855 
	C705.489990,160.874893 675.602844,174.155823 650.407471,195.628113 
	C645.993958,199.389420 640.165955,202.241653 641.342041,209.773041 
	C634.320312,209.277878 627.608704,210.348999 622.011841,206.401352 
	C624.482239,203.119232 624.078857,199.078400 626.540222,196.492691 
	C625.182861,194.524506 623.407593,193.945206 621.688782,193.409607 
	C611.038696,190.090897 600.226685,187.380066 589.276245,185.275406 
	C569.808777,181.533752 550.151794,179.240967 530.376160,177.956833 
	C509.070862,176.573364 487.752136,176.500198 466.508789,178.646500 
	C445.949982,180.723633 425.728973,184.909943 405.863647,190.548294 
	C368.842651,201.055878 333.160400,214.945480 301.086334,236.531754 
	C257.161438,266.093811 221.095688,303.717163 191.172470,347.252777 
	C166.507065,383.138733 147.451187,421.553223 139.713684,464.882416 
	C135.858093,486.473297 136.152496,507.914001 142.011459,529.153687 
	C142.370132,530.453918 142.224579,532.117004 144.208450,532.778442 
	C145.054428,524.494324 145.865402,516.436157 146.702271,508.380707 
	C148.910004,487.129547 154.812088,466.944275 164.508682,447.918030 
	C166.134933,444.727081 168.154938,441.443298 171.819824,440.128265 
	C173.289017,441.785400 173.047989,443.142944 172.683487,444.414551 
	C170.753128,451.149353 170.019653,458.186218 168.089813,464.866394 
	C162.562714,483.998444 163.656693,503.029907 167.778030,522.133362 
	C171.276672,538.350464 179.482895,551.851257 190.362015,564.331543 
	C200.620468,576.099915 212.610306,584.216919 227.659103,587.953369 
	C231.884506,589.002502 233.693649,587.641296 232.418762,583.480347 
	C228.490616,570.659790 230.351196,556.504150 223.292236,544.414917 
	C222.691666,543.386353 222.942444,541.817322 222.926071,540.497803 
	C222.788254,529.398254 226.409653,518.840881 227.600128,507.888611 
	C230.813522,478.325897 238.470566,449.726471 247.916855,421.555695 
	C254.930130,400.640717 263.403168,380.431274 274.624512,361.416931 
	C275.663361,359.656616 276.355988,357.468719 278.810883,356.723602 
	C279.509460,359.025665 278.785309,360.787354 278.024261,362.680511 
	C267.831024,388.037384 259.670074,414.065430 252.043060,440.295135 
	C245.384369,463.194763 242.234955,486.829468 236.648407,509.942657 
	C236.273392,511.494141 235.590240,513.214355 238.294830,514.934082 
	C254.314301,494.219940 270.056213,473.331024 282.675659,449.547424 
	C271.880920,448.911041 267.610687,460.064362 258.198395,460.969238 
	C257.510376,456.917267 258.446625,453.493500 260.670380,451.156769 
	C267.730835,443.737549 274.297424,435.559875 284.895386,432.663910 
	C290.258240,431.198486 294.093506,428.150452 296.459564,422.692474 
	C302.815948,408.029633 308.845123,393.127350 316.535004,379.163086 
	C328.114502,358.135681 339.683716,337.213348 347.170319,314.277374 
	C347.962616,311.850220 348.847015,308.888763 352.032867,307.321472 
	C353.006927,311.091125 352.169769,314.270020 351.395355,317.416107 
	C349.769562,324.020874 347.402191,330.514618 346.495850,337.210480 
	C344.452148,352.308929 342.105957,367.379028 344.521912,382.793823 
	C347.896301,404.324036 349.184479,426.162109 358.910217,446.372040 
	C366.221802,461.565399 373.624603,476.490723 384.046356,489.929474 
	C397.708984,507.547302 413.939484,522.080017 432.737122,533.885803 
	C434.121002,534.755005 435.539398,536.079041 437.298431,535.249634 
	C439.371765,534.272095 438.940979,532.145264 438.918915,530.371338 
	C438.837891,523.848999 436.760590,517.642334 435.517670,511.329498 
	C432.438416,495.689941 428.726532,480.175079 425.290955,464.605255 
	C425.031769,463.430634 424.165527,462.067932 425.872833,461.183533 
	C427.726044,461.826996 427.499176,463.641327 427.997894,464.922577 
	C432.966400,477.687256 435.770172,491.144958 445.046265,502.302948 
	C452.832520,511.668854 460.630554,520.785950 470.120453,528.394470 
	C473.624481,531.203796 477.435242,530.597778 480.728241,527.309753 
	C484.573181,523.470642 486.305511,518.340881 489.259521,514.009460 
	C493.368073,507.985077 497.435059,501.936371 501.181305,495.694946 
	C506.916077,486.140594 512.306396,476.380219 517.950745,466.770630 
	C521.286194,461.092041 524.260498,455.275513 526.635132,448.850952 
	C524.015442,447.649536 520.383118,450.834412 519.355042,446.217133 
	C518.399475,441.925781 520.391541,439.224365 523.228149,436.700806 
	C524.095764,435.928894 525.154297,435.368103 526.002502,434.578522 
	C529.624939,431.206299 534.998474,429.905548 537.380737,425.092804 
	C539.817383,420.170258 542.600037,415.358307 544.454102,410.217682 
	C558.703796,370.709045 569.619080,330.393494 573.230469,288.359985 
	C573.351318,286.953613 573.518250,285.291260 575.969543,284.855957 
	C577.513611,290.128998 578.179504,295.537140 578.117554,300.978699 
	C577.957947,314.997894 579.788208,328.870667 580.986694,342.785797 
	C581.748840,351.635406 585.215759,359.886047 587.383606,368.426483 
	C591.398621,384.244202 596.114197,399.833923 603.427002,414.498871 
	C605.606873,418.870331 608.624146,422.269470 613.638550,423.923401 
	C627.116821,428.369019 640.018921,434.070526 650.950928,443.420624 
	C655.267334,447.112457 658.265930,451.593140 658.971191,457.793854 
	C655.572754,457.670227 653.620972,456.014069 651.497986,454.787354 
	C643.703491,450.283569 635.782166,446.036774 627.305115,442.931519 
	C625.577087,442.298523 623.618774,441.574036 622.138794,443.119263 
	C620.402649,444.931976 622.230042,446.480927 623.040527,448.012390 
	C626.328186,454.224976 630.827148,459.611084 634.869812,465.311401 
	C648.041260,483.883728 662.576477,501.185883 681.056091,514.777649 
	C683.041687,516.238037 684.902527,519.472046 687.757751,517.898621 
	C690.198120,516.553772 688.373413,513.654358 688.303833,511.423645 
	C688.262573,510.100372 688.561218,508.761414 688.471802,507.445465 
	C687.003113,485.832672 683.601013,464.485046 679.530579,443.235046 
	C678.153259,436.044403 676.036316,429.499969 670.985840,423.485870 
	C657.529358,407.461853 647.273010,389.309448 638.956909,370.108002 
	C636.478516,364.385620 637.319214,361.378174 641.959900,359.978638 
	C650.394409,357.435028 658.910828,355.111572 667.492798,353.128082 
	C672.172546,352.046448 676.103455,353.368988 678.970520,357.980194 
	C683.898743,365.906433 688.643127,373.926453 693.190552,382.071350 
	C693.958618,383.446930 694.230652,385.364227 696.502808,385.487274 
	C698.406433,384.035217 698.309326,381.803284 698.669067,379.715057 
	C700.221313,370.702332 701.653748,361.661926 704.688538,352.979614 
	C705.833435,349.704102 707.454163,346.722748 711.027771,345.804077 
	C720.070190,343.479614 729.268066,342.252686 738.636963,342.476562 
	C743.564819,342.594330 745.184631,345.399963 745.354187,349.910248 
	C745.674744,358.434845 744.850403,366.922607 743.816467,375.307465 
	C740.876465,399.150787 734.704468,422.269745 727.465942,445.164185 
	C724.829712,453.502167 720.749390,458.562378 711.710632,460.006317 
	C705.911926,460.932678 700.645874,461.727142 696.196228,457.604004 
	C693.980286,459.209930 694.326416,460.992828 694.477478,462.592804 
	C695.102478,469.212128 695.548035,475.866943 696.585449,482.425537 
	C700.835388,509.294708 701.125610,536.432861 701.891052,563.503296 
	C702.657593,590.614197 703.055908,617.739014 700.500061,644.852173 
	C698.846252,662.396057 697.611084,680.002502 694.977295,697.408997 
	C689.319275,734.802612 681.812134,771.771423 667.231384,806.957825 
	C659.144714,826.472595 652.482056,846.639099 639.306885,863.647705 
	C637.148193,866.434387 639.007629,867.676514 641.720398,867.616211 
	C646.559082,867.508667 651.427124,866.853821 655.892029,865.059753 
	C673.766479,857.877747 690.488953,848.679321 704.810791,835.589722 
	C727.267883,815.064941 744.212891,790.657715 756.148682,762.689148 
	C757.440979,759.660889 758.429443,756.190369 761.385132,753.938782 
	C763.587097,756.505188 766.492615,758.412903 764.838562,762.270569 
	C763.726929,764.862915 762.709778,767.500122 761.757080,770.155579 
	C758.794495,778.413391 752.280029,785.225220 750.551819,793.692505 
	C749.001587,801.287964 744.606873,806.847839 740.067810,811.898071 
	C736.221924,816.176880 737.168030,821.380371 734.537537,825.578796 
	C733.980530,826.467957 735.226318,827.695923 736.281006,828.321655 
	C739.016602,829.944763 741.791992,829.791748 744.254822,827.934143 
	C756.922424,818.379211 768.686584,807.820618 778.535522,795.333801 
	C802.568481,764.864380 814.664246,729.372498 821.737549,691.795288 
	C825.928345,669.531433 827.901550,647.004211 829.916443,624.478638 
	C831.904602,602.251221 833.401794,580.009277 832.160217,557.672913 
	C832.022827,555.200684 832.215698,552.755310 833.715332,550.396912 
	C836.967407,571.163208 845.386169,590.745117 847.601562,612.076782 
	C844.075195,611.226440 845.530212,607.851440 843.205994,606.631653 
	C839.921448,607.274353 839.812256,610.267822 839.624817,612.721558 
	C839.297424,617.008667 839.479431,621.334778 839.451660,625.644592 
	C839.257385,655.838135 837.105652,685.720459 829.350586,715.156677 
	C818.705139,755.563721 800.898132,791.784790 771.138550,821.609680 
	C770.554138,822.195374 769.950989,822.816895 770.435425,823.813843 
	C771.569702,825.153076 773.438416,825.359192 774.515137,824.585571 
	C790.571167,813.049133 805.630981,800.534241 814.452820,781.863770 
	C819.707153,786.658081 820.335999,792.814819 819.009888,798.911987 
	C816.733459,809.379028 811.646973,818.836365 807.120422,828.478027 
	C805.717957,831.465210 802.240417,835.101868 805.245239,837.977356 
	C808.195740,840.801025 812.156311,837.806702 815.451416,836.469910 
	C842.863525,825.348633 863.315674,806.185181 878.693787,781.286194 
	C888.832092,764.871094 895.344177,747.305054 894.784851,727.660828 
	C894.691040,724.367310 894.612000,721.166748 895.057617,717.814148 
	C896.058716,710.282043 897.850403,702.857239 898.081177,695.198975 
	C898.251099,689.559875 897.126221,683.889832 898.459167,678.280823 
	C898.921631,676.334778 899.758240,674.823486 902.094177,674.941650 
	C904.562988,675.066467 905.033936,676.801331 905.032715,678.771484 
	C905.031128,681.309143 905.479675,683.705872 906.499817,686.051147 
	C909.964478,694.016479 911.531006,702.560364 913.902161,710.858459 
	C914.306946,712.274841 914.688232,714.164795 913.194214,715.013855 
	C906.970154,718.551025 909.533691,723.562073 910.938232,728.203125 
	C914.183838,738.927490 918.721863,749.286072 919.071106,760.767334 
	C919.313965,768.752502 919.756836,776.724121 918.754639,784.681274 
	C918.541199,786.376038 917.863220,788.061462 918.950623,789.834229 
	C924.673523,784.564087 933.376587,768.872375 936.568359,758.479675 
	C944.594910,732.344604 943.790894,706.092529 936.046875,680.251038 
	C929.536926,658.527344 918.257385,638.643921 909.624512,617.731812 
	C901.205811,597.338257 889.230530,578.418335 884.015442,556.712280 
	C879.871277,539.463684 878.073120,521.990601 879.327148,504.216736 
	C879.653625,499.589569 881.249023,495.107697 880.485901,490.345459 
	C878.776062,479.675598 877.431335,468.946564 875.674500,458.285065 
	C870.720642,428.221924 862.129761,399.294891 848.270081,372.053436 
	C847.522034,370.583221 846.851746,369.000061 844.742432,368.610596 
	C844.299133,368.908508 843.593872,369.152740 843.250366,369.647888 
	C837.917847,377.333466 831.914246,384.439911 825.114380,390.867889 
	C823.206055,392.671967 823.767944,394.641693 824.398865,396.839081 
	C833.675964,429.152710 838.713135,462.071442 838.226013,495.749908 
	C838.201965,497.410156 838.911865,499.456909 836.866699,500.644867 
	C833.922485,497.236176 833.924622,497.236023 833.713196,494.150848 
	C832.185181,471.852905 828.218567,449.889740 822.922424,428.270966 
	C817.520691,406.221222 807.812683,385.711090 798.036072,365.218536 
	C778.807190,324.913361 750.382874,292.003326 717.822754,262.194275 
	C715.423950,259.998199 712.516907,258.172089 711.217346,254.403931 
	C719.791626,249.497864 724.758972,241.459122 730.012756,233.545990 
	C741.060120,216.906555 752.237000,200.335587 767.039551,186.636108 
	C781.599060,173.161484 797.239380,160.998444 812.906677,148.876740 
	C815.233337,147.076630 817.820801,144.954971 821.235291,145.593018 
	C822.125854,148.159836 820.319153,149.233948 819.101440,150.452866 
	C816.758057,152.798676 813.978577,154.761841 811.898132,157.307205 
	C806.077332,164.428848 798.441650,169.681305 792.473999,176.654770 
	C788.919739,180.807938 785.158813,184.891739 780.960266,188.365463 
	C769.143372,198.142166 760.092407,210.188400 751.867737,222.915924 
	C747.736328,229.309189 747.973999,229.462784 753.100952,234.476410 
	C750.429626,236.895798 746.689941,237.235519 743.307678,239.721405 
M278.766418,764.733643 
	C288.915649,775.415710 299.954437,785.181213 312.770508,792.399597 
	C341.599243,808.636658 372.046722,821.256348 403.839355,830.433044 
	C426.878815,837.083130 450.218781,842.675842 474.394012,842.517273 
	C493.069611,842.394775 511.431122,839.217896 529.620544,835.038025 
	C559.215393,828.237366 586.924927,816.744507 613.447449,802.092224 
	C631.056641,792.364197 647.414001,781.036560 661.545593,766.646973 
	C667.212646,760.876648 671.780945,754.550049 673.474792,746.310059 
	C676.417908,731.993225 679.709229,717.773499 681.967224,703.294678 
	C686.354919,675.159058 689.343689,646.886597 690.462219,618.478821 
	C691.484192,592.523438 690.984619,566.518921 690.407349,540.537659 
	C690.298462,535.637207 688.406555,532.086548 683.802673,529.760498 
	C681.156006,528.423340 678.224487,527.712280 675.824646,525.732910 
	C646.403076,501.465698 624.573303,470.824677 603.512634,439.562103 
	C601.518799,436.602539 599.468994,434.400452 595.986267,433.633484 
	C582.297913,430.619202 568.612183,430.738953 554.975952,433.854584 
	C548.039734,435.439392 543.018799,439.240631 540.787964,446.414459 
	C538.370605,454.187927 535.215698,461.650513 531.007080,468.701324 
	C517.345032,491.589783 503.854095,514.586670 487.343414,535.602966 
	C480.794891,543.938416 470.598175,544.305298 462.998627,536.781799 
	C460.190979,534.002258 457.311432,529.777405 452.982544,532.528625 
	C449.206482,534.928528 451.698700,539.049194 452.615021,542.537659 
	C453.403900,545.540955 454.634460,549.165222 451.732849,551.426758 
	C449.084290,553.490967 445.576080,552.615051 442.646606,551.301636 
	C432.446014,546.728394 422.697449,541.237610 413.810547,534.502197 
	C386.218475,513.590210 364.554047,487.875946 351.298981,455.563782 
	C350.513245,453.648346 349.474365,451.946747 347.645050,450.965424 
	C335.065826,444.217194 322.403046,438.504730 307.309113,440.883392 
	C301.984894,441.722443 298.852631,443.718811 296.478607,448.104980 
	C281.034760,476.638580 262.838928,503.233978 240.740494,527.078186 
	C238.365372,529.640930 237.343246,532.957397 237.588837,536.310120 
	C238.183090,544.422485 238.740097,552.576416 240.069107,560.588013 
	C242.844528,577.318726 246.470184,593.892090 250.896835,610.272156 
	C258.414978,638.091797 260.194092,666.364197 256.931702,694.886353 
	C253.915131,721.259705 260.988464,744.240417 278.766418,764.733643 
M279.882111,821.300049 
	C277.460632,811.428894 277.323761,801.493652 279.625946,791.626770 
	C280.738861,786.856934 279.399200,783.675354 275.770935,780.414917 
	C259.635712,765.915405 249.886719,747.701843 245.303970,726.574829 
	C242.629440,714.244812 244.636444,701.968933 246.028503,689.819824 
	C248.887894,664.864868 246.408463,640.464966 241.440796,616.000977 
	C239.562393,606.750549 236.816589,600.406006 226.227234,600.752258 
	C225.270935,600.783508 224.295441,600.289185 223.331848,600.028015 
	C212.588226,597.116333 203.242157,591.303772 193.727905,585.822510 
	C189.473129,583.371277 188.004471,584.014771 186.465576,588.716614 
	C186.052368,589.979065 185.703903,591.267395 185.405670,592.562195 
	C181.965973,607.494873 177.646530,622.144958 172.185028,636.485596 
	C162.890503,660.890930 153.020935,685.093262 146.648102,710.528076 
	C137.873611,745.548401 144.338409,777.439636 165.609100,806.454529 
	C166.541016,807.725769 167.192688,809.429565 170.485626,809.696350 
	C159.653198,772.901245 164.646301,736.935486 173.554321,701.109497 
	C175.912994,704.168579 174.807617,707.476868 175.042831,710.654480 
	C175.979477,723.309021 173.345673,736.050842 179.657593,748.520020 
	C184.138611,757.372192 185.229080,767.921143 188.021378,777.658691 
	C188.937531,780.853638 187.972565,784.094055 189.399902,787.392578 
	C192.418884,794.369385 196.493683,800.614929 201.172592,806.452576 
	C221.113113,831.331177 247.647369,845.205811 278.261932,852.122437 
	C284.763702,853.591309 286.890656,851.893066 285.569916,845.393250 
	C283.984192,837.589478 282.963593,829.620789 279.882111,821.300049 
M253.679703,213.879150 
	C257.386841,222.619339 261.722198,231.042664 266.370667,239.316360 
	C269.217163,244.382767 270.813812,244.827469 275.130707,241.208176 
	C292.583557,226.575699 311.834198,214.783936 332.196991,204.681152 
	C336.575623,202.508728 341.581726,201.341324 345.073914,197.813339 
	C344.721527,194.861465 342.740814,193.537506 340.910828,192.093719 
	C316.439880,172.787064 289.161652,158.204636 261.233124,144.709442 
	C241.133469,134.997192 220.778824,125.946274 198.924133,120.842743 
	C195.230179,119.980133 191.468597,119.079567 187.596741,119.864128 
	C178.925491,121.621193 176.401031,128.683716 174.329300,135.777893 
	C167.101715,160.527054 164.329636,185.995941 163.452820,211.624069 
	C162.610550,236.241791 163.442657,260.837463 167.330368,285.263947 
	C169.945068,301.692139 172.759903,318.048492 178.146988,333.841156 
	C178.757019,335.629517 178.843781,338.243958 181.380997,338.357117 
	C183.422470,338.448181 184.108170,336.279816 185.193970,334.817444 
	C193.923416,323.060547 202.154785,310.867157 211.679184,299.787872 
	C219.566803,290.612579 228.994064,282.758789 237.760193,274.341400 
	C245.305069,267.096680 252.879593,259.882812 260.243958,252.843658 
	C259.378326,247.472412 253.917160,246.187592 251.993546,242.160629 
	C254.757614,238.001099 254.781143,237.988632 252.474228,233.634018 
	C249.597839,228.204437 246.406067,222.923584 243.832550,217.355682 
	C238.335388,205.462311 232.255569,193.861115 225.528336,182.658539 
	C220.064178,173.559341 213.547134,165.093643 207.534515,156.321289 
	C206.656631,155.040482 205.081055,153.931686 206.228561,151.330338 
	C210.864410,153.942581 214.716599,156.980148 218.484634,160.795593 
	C233.548645,176.049057 244.872253,193.647949 253.679703,213.879150 
M651.430847,372.528931 
	C654.784302,378.083679 658.084351,383.671448 661.500732,389.187225 
	C673.628357,408.767242 687.779846,426.836426 702.652466,444.376678 
	C704.948547,447.084473 707.475464,448.257721 710.929688,447.584320 
	C714.314880,446.924347 714.994019,444.294098 715.936523,441.489410 
	C721.719849,424.279358 726.015869,406.697540 729.302307,388.865448 
	C730.925720,380.056671 733.190857,371.323853 733.632568,362.346588 
	C734.095276,352.942169 733.905273,352.929810 724.369202,354.262421 
	C722.890564,354.469055 721.422852,354.759491 719.941406,354.939880 
	C715.949829,355.425903 713.959351,357.578278 713.106201,361.608673 
	C710.010864,376.232758 707.077332,390.876190 705.134644,405.707001 
	C704.864197,407.771790 705.001587,410.514313 702.317505,410.984039 
	C699.536011,411.470825 697.098755,410.291687 695.719666,407.564270 
	C695.118896,406.375916 694.497559,405.197723 693.910461,404.002686 
	C687.811584,391.588196 679.170105,380.638123 673.265747,368.104218 
	C671.730713,364.845581 668.932983,363.662079 665.367554,364.409943 
	C661.958679,365.124939 658.487732,365.621094 655.153870,366.590881 
	C652.722839,367.298035 650.441406,368.597229 651.430847,372.528931 
M569.760132,414.954376 
	C574.785767,414.304382 579.704102,415.860260 584.707092,415.680573 
	C589.473267,415.509399 590.563293,414.124908 588.635681,409.824463 
	C582.815552,396.839874 579.652039,383.020233 575.642090,369.464966 
	C575.038635,367.425293 574.697021,365.234100 571.529236,363.344391 
	C564.244324,380.951080 560.875427,399.579468 552.612366,417.392853 
	C559.074768,417.844421 563.789612,415.071686 569.760132,414.954376 
M339.615234,419.736938 
	C336.237091,405.391174 333.997620,390.814056 331.563538,375.217255 
	C329.920074,377.161224 328.976562,377.930847 328.474304,378.923706 
	C321.719299,392.276154 315.584686,405.914368 309.877563,419.745056 
	C308.324066,423.509766 309.783020,424.969147 313.686615,424.812866 
	C320.676147,424.533051 327.675293,424.394653 334.343140,427.102905 
	C336.141296,427.833221 338.085999,429.665436 339.862885,428.131958 
	C341.733490,426.517517 340.509552,424.104370 340.042938,422.030823 
	C339.933472,421.544403 339.824951,421.057831 339.615234,419.736938 
M332.977234,817.520447 
	C328.468079,817.926453 320.444763,813.970825 318.347046,810.293823 
	C316.886749,810.693237 318.569122,812.680115 316.987061,813.003906 
	C307.389160,801.864929 309.637024,804.735962 301.997589,800.901001 
	C300.566284,800.182495 299.402618,799.374390 297.996033,800.721924 
	C296.802002,801.865906 296.504730,803.219788 296.895508,804.819641 
	C297.726929,808.223572 298.904358,811.466675 300.723389,814.490051 
	C303.991821,819.922424 311.360992,821.076782 316.008759,816.741760 
	C316.964935,817.574524 318.196198,818.046204 318.072723,819.807434 
	C317.946991,821.600586 318.986328,823.176819 320.692841,823.614990 
	C323.875732,824.432251 326.209686,826.616333 328.953491,828.130981 
	C332.641418,830.166809 336.450592,831.471741 340.855316,830.380249 
	C344.140686,829.566223 347.322723,829.809326 350.166138,832.374023 
	C352.361908,834.354614 354.937714,834.256165 357.130615,831.910522 
	C355.283203,826.877991 351.907837,823.773682 346.737274,823.473145 
	C344.251923,823.328613 341.979370,822.915161 339.573639,822.384277 
	C336.540222,821.715027 336.826538,817.584412 332.977234,817.520447 
z"/>
<path fill="#000000" opacity="1.000000" stroke="none" 
	d="
M555.643921,561.736328 
	C563.310791,555.913330 567.695435,547.216431 576.871765,541.615723 
	C565.580872,544.572632 556.904663,550.137085 547.729126,554.656250 
	C537.915527,559.489624 535.288330,570.707520 527.664001,577.380371 
	C523.948059,574.367554 524.349792,571.658813 525.459717,568.115173 
	C533.893860,541.187561 553.509094,525.881287 578.857056,516.859558 
	C591.135132,512.489563 603.824402,513.981079 616.281860,517.018372 
	C638.745789,522.495422 656.156189,534.848755 667.913086,554.950256 
	C676.992310,570.473511 680.299927,587.327515 677.963684,604.912659 
	C676.516418,615.806152 669.771179,624.294128 660.653259,631.708374 
	C659.526672,627.234253 661.810425,623.642395 662.000610,619.890442 
	C662.990417,600.367004 661.009521,581.442444 649.107727,565.210938 
	C638.336365,550.521362 624.212585,540.318848 605.632385,537.546387 
	C604.085083,537.315430 602.351746,536.730896 600.548950,538.633606 
	C603.841492,540.925964 606.958740,543.223206 610.198608,545.331909 
	C636.631348,562.535767 643.715698,588.241943 641.713074,617.722046 
	C640.636414,633.570496 634.746460,647.348877 624.561035,659.944275 
	C612.624451,674.705200 594.647461,676.505432 579.312683,673.972900 
	C576.519592,673.511536 574.622803,670.896057 572.241760,669.410583 
	C554.787598,658.521057 547.701538,641.644958 544.854492,622.315369 
	C541.988831,602.859497 545.116760,584.225098 552.847839,566.274292 
	C553.498413,564.763733 554.533569,563.418823 555.643921,561.736328 
M586.020142,634.401733 
	C576.855591,637.610962 573.560913,645.500671 571.466309,653.783447 
	C569.485718,661.615173 573.218872,666.103149 581.085999,668.303955 
	C591.263550,671.151062 600.795776,668.890320 610.237732,665.525696 
	C615.524109,663.641968 618.538574,657.256409 616.851013,652.094421 
	C615.199219,647.041687 613.015259,642.229675 609.779663,637.936401 
	C608.227295,635.876648 606.430359,634.033142 603.904907,633.605469 
	C598.188354,632.637390 592.411438,631.829285 586.020142,634.401733 
M603.071350,580.146912 
	C602.402527,575.319153 601.123718,570.699097 597.969604,566.853577 
	C594.397400,562.498352 589.312012,561.971191 585.233337,565.398987 
	C576.637390,572.623474 575.382019,591.198853 582.921082,599.614929 
	C588.010010,605.295837 595.018188,604.874390 599.323669,598.580750 
	C602.978394,593.238403 603.142456,587.083618 603.071350,580.146912 
z"/>
<path fill="#000000" opacity="1.000000" stroke="none" 
	d="
M382.286591,588.018311 
	C385.903870,608.707397 385.314972,628.719604 376.128937,647.442932 
	C368.981384,662.011230 357.580658,671.218933 340.135040,670.307495 
	C337.694824,670.179993 335.398682,669.727905 333.676178,668.079102 
	C325.425079,660.181396 315.722839,653.716797 309.949402,643.376953 
	C301.031830,627.406250 298.648102,610.269714 300.203918,592.328125 
	C301.282745,579.886963 304.468109,568.194458 311.352203,557.570374 
	C315.410065,551.307861 320.144196,545.882446 326.571503,542.029175 
	C328.003204,541.170837 329.673737,540.452332 329.547363,538.419373 
	C329.414825,536.287231 327.520203,535.941406 325.987061,535.455261 
	C322.506073,534.351440 319.025879,533.163818 315.459259,532.427063 
	C305.518158,530.373535 297.518280,533.856995 289.933105,540.425781 
	C271.116852,556.720764 269.287689,577.535522 272.802521,600.062378 
	C273.676056,605.661133 274.464417,611.273071 275.305695,616.971924 
	C274.295471,616.971924 274.049072,617.042175 273.981812,616.962036 
	C259.264618,599.433350 247.565018,580.733521 250.799454,556.352661 
	C251.539780,550.772034 252.616318,545.766479 257.640747,541.609314 
	C263.733734,536.567932 268.781738,530.176147 273.873993,524.030640 
	C284.943878,510.671204 299.143707,508.967926 315.357971,510.738312 
	C341.138824,513.553223 357.379150,529.732300 372.206573,548.498352 
	C373.762085,550.466980 374.711823,552.520691 372.244904,554.569763 
	C369.944977,556.480225 370.427063,558.619751 371.829620,560.769592 
	C377.186401,568.980408 380.178619,578.104004 382.286591,588.018311 
M332.193970,636.711121 
	C329.921570,640.205078 328.051178,643.889893 326.675812,647.837402 
	C326.048035,649.639282 325.831116,651.386169 326.515350,653.180542 
	C329.337128,660.580383 334.613495,664.063538 342.685211,663.867981 
	C345.176056,663.807678 347.673431,663.826355 350.155792,663.644592 
	C357.038574,663.140625 362.538940,660.783691 365.405273,653.715210 
	C368.587708,645.867249 369.011536,638.301697 363.280457,631.757874 
	C360.859741,628.993896 357.982880,624.448364 353.636688,625.706909 
	C346.112305,627.885742 337.210358,627.862915 332.193970,636.711121 
M358.318848,567.246521 
	C355.901031,563.951416 354.048584,559.819153 348.844849,560.478760 
	C344.138824,561.075317 340.827637,563.679382 339.233521,568.083862 
	C335.783478,577.616333 337.038055,586.794739 342.589661,595.110596 
	C347.071991,601.824829 354.677063,601.500732 358.692322,594.406006 
	C363.603821,585.727600 363.554321,576.724609 358.318848,567.246521 
z"/>
<path fill="#000000" opacity="1.000000" stroke="none" 
	d="
M548.073364,699.677246 
	C550.471924,700.960327 551.920898,702.683228 552.117981,704.925842 
	C554.101013,727.497864 554.207642,750.191223 544.493225,771.067322 
	C535.787537,789.775818 521.299744,802.668457 500.031403,807.026550 
	C477.120056,811.721375 454.949188,810.940063 433.904266,800.110657 
	C407.434235,786.489685 393.478333,763.900269 388.721161,735.061157 
	C388.044128,730.956848 387.419556,726.854065 387.641785,722.658325 
	C387.934052,717.139893 390.221802,715.167236 395.628021,714.581970 
	C402.195221,713.871155 407.984528,716.746460 414.164154,717.738708 
	C425.414459,719.545166 436.806458,719.343689 448.052002,718.421814 
	C465.254608,717.011536 482.448792,715.097961 499.257996,710.815430 
	C510.572693,707.932800 521.506897,703.905029 532.312500,699.566467 
	C537.579468,697.451660 542.571838,696.969543 548.073364,699.677246 
M448.607391,799.982422 
	C454.943207,802.587341 461.538757,803.925049 468.337616,804.845459 
	C479.532196,806.360962 489.844818,801.109985 500.826782,801.234741 
	C504.115936,801.272217 507.281433,800.364319 510.253357,798.480652 
	C522.396362,790.784180 530.215942,779.721863 535.712463,766.737915 
	C538.467346,760.230408 540.254395,753.510925 539.972412,746.399231 
	C539.786011,741.698669 536.181152,739.763000 532.513550,742.212463 
	C525.820618,746.682617 525.812134,746.692322 519.739319,741.389771 
	C518.110168,739.967163 516.440552,738.566589 514.979004,736.981201 
	C511.266052,732.953735 506.506775,731.662903 501.292358,730.593140 
	C488.699982,728.009705 476.582886,729.462585 464.521210,733.304504 
	C447.922821,738.591553 432.075195,745.189270 419.359283,757.671265 
	C411.714844,765.175049 411.643219,770.135376 419.012726,777.930664 
	C427.424591,786.828491 436.643494,794.602539 448.607391,799.982422 
M531.437500,728.914856 
	C533.633057,724.624878 535.834412,720.331055 537.007507,715.620056 
	C537.936951,711.887146 536.212463,710.106323 532.567810,711.218018 
	C529.878601,712.038269 527.318298,713.281250 524.701599,714.338501 
	C514.462524,718.475159 514.213623,719.023071 519.402161,728.924988 
	C520.832397,731.654663 522.116760,735.300415 525.623291,735.439758 
	C528.885071,735.569458 529.359985,731.672424 531.437500,728.914856 
z"/>
<path fill="#000000" opacity="1.000000" stroke="none" 
	d="
M551.907837,516.901001 
	C544.799683,522.034668 539.724670,529.032349 532.528748,533.799744 
	C530.123230,531.121826 530.814758,528.686401 532.314087,526.670593 
	C539.786621,516.623779 549.961609,510.226898 561.430176,505.693665 
	C562.636536,505.216827 564.038513,504.952484 565.814941,507.034943 
	C562.188660,511.411987 556.461792,513.149902 551.907837,516.901001 
z"/>
<path fill="#000000" opacity="1.000000" stroke="none" 
	d="
M344.268646,499.561707 
	C353.170258,503.683533 361.256592,508.224976 365.876312,517.120544 
	C354.054962,511.425751 343.559296,503.453613 331.417877,498.184906 
	C336.165314,494.382019 339.833679,498.810425 344.268646,499.561707 
z"/>
</svg>